<svg xmlns="http://www.w3.org/2000/svg" width="180" height="90" viewBox="0 0 180 90">
  <defs>
    <linearGradient id="brickA" x1="0" y1="0" x2="0" y2="1">
      <stop offset="0%" stop-color="#c4785a"/>
      <stop offset="45%" stop-color="#b46345"/>
      <stop offset="100%" stop-color="#9e5238"/>
    </linearGradient>
    <linearGradient id="brickB" x1="0" y1="0" x2="0" y2="1">
      <stop offset="0%" stop-color="#bc6f52"/>
      <stop offset="50%" stop-color="#a85a3f"/>
      <stop offset="100%" stop-color="#934933"/>
    </linearGradient>
    <linearGradient id="brickC" x1="0" y1="0" x2="0" y2="1">
      <stop offset="0%" stop-color="#cd8162"/>
      <stop offset="55%" stop-color="#b96a4c"/>
      <stop offset="100%" stop-color="#a3563c"/>
    </linearGradient>
  </defs>
  <rect width="180" height="90" fill="#6e4336"/>
  <g stroke="#5a342a" stroke-width="1.6">
    <rect x="1" y="1" width="88" height="42" fill="url(#brickA)"/>
    <rect x="91" y="1" width="88" height="42" fill="url(#brickC)"/>
    <rect x="-44" y="47" width="88" height="42" fill="url(#brickB)"/>
    <rect x="46" y="47" width="88" height="42" fill="url(#brickA)"/>
    <rect x="136" y="47" width="88" height="42" fill="url(#brickC)"/>
  </g>
  <g fill="none" stroke="rgba(255,220,190,0.14)" stroke-width="1">
    <path d="M2 2h86v40H2zM92 2h86v40H92zM-43 48h86v40h-86zM47 48h86v40H47zM137 48h86v40h-86z"/>
  </g>
  <g fill="rgba(60,30,20,0.12)">
    <rect x="18" y="14" width="22" height="8" rx="1"/>
    <rect x="108" y="22" width="18" height="6" rx="1"/>
    <rect x="62" y="58" width="26" height="7" rx="1"/>
  </g>
</svg>
